<?xml version="1.0" encoding="UTF-8" standalone="no"?><!DOCTYPE svg PUBLIC "-//W3C//DTD SVG 1.1//EN" "http://www.w3.org/Graphics/SVG/1.1/DTD/svg11.dtd"><svg width="100%" height="100%" viewBox="0 0 1418 1985" version="1.1" xmlns="http://www.w3.org/2000/svg" xmlns:xlink="http://www.w3.org/1999/xlink" xml:space="preserve" xmlns:serif="http://www.serif.com/" style="fill-rule:evenodd;clip-rule:evenodd;stroke-linecap:round;stroke-linejoin:round;stroke-miterlimit:1.5;"><path d="M924,599l-281.917,0c-2.551,-8.111 -10.135,-14 -19.083,-14c-1.02,0 -2.021,0.076 -3,0.224l0,-251.625c1.293,0.263 2.63,0.401 4,0.401c9.669,0 17.744,-6.876 19.599,-16l280.401,0l0,281Z" style="fill:#3a86d7;"/><path d="M604.401,318c1.855,9.124 9.93,16 19.599,16l0,3.19c-0.15,-0.019 -0.302,-0.029 -0.457,-0.029c-1.956,0 -3.543,1.588 -3.543,3.543c0,1.955 1.587,3.543 3.543,3.543c0.155,0 0.307,-0.01 0.457,-0.03l0,4.217c-0.15,-0.019 -0.302,-0.029 -0.457,-0.029c-1.956,0 -3.543,1.587 -3.543,3.542c0,1.956 1.587,3.543 3.543,3.543c0.155,0 0.307,-0.01 0.457,-0.029l0,4.216c-0.15,-0.019 -0.302,-0.029 -0.457,-0.029c-1.956,0 -3.543,1.588 -3.543,3.543c0,1.955 1.587,3.543 3.543,3.543c0.155,0 0.307,-0.01 0.457,-0.03l0,4.217c-0.15,-0.019 -0.302,-0.029 -0.457,-0.029c-1.956,0 -3.543,1.587 -3.543,3.542c0,1.956 1.587,3.543 3.543,3.543c0.155,0 0.307,-0.01 0.457,-0.029l0,4.217c-0.15,-0.02 -0.302,-0.03 -0.457,-0.03c-1.956,0 -3.543,1.588 -3.543,3.543c0,1.955 1.587,3.543 3.543,3.543c0.155,0 0.307,-0.01 0.457,-0.029l0,4.216c-0.15,-0.019 -0.302,-0.029 -0.457,-0.029c-1.956,0 -3.543,1.587 -3.543,3.543c0,1.955 1.587,3.542 3.543,3.542c0.155,0 0.307,-0.01 0.457,-0.029l0,4.217c-0.15,-0.02 -0.302,-0.03 -0.457,-0.03c-1.956,0 -3.543,1.588 -3.543,3.543c0,1.955 1.587,3.543 3.543,3.543c0.155,0 0.307,-0.01 0.457,-0.029l0,4.216c-0.15,-0.019 -0.302,-0.029 -0.457,-0.029c-1.956,0 -3.543,1.587 -3.543,3.543c0,1.955 1.587,3.542 3.543,3.542c0.155,0 0.307,-0.01 0.457,-0.029l0,4.217c-0.15,-0.02 -0.302,-0.03 -0.457,-0.03c-1.956,0 -3.543,1.588 -3.543,3.543c0,1.955 1.587,3.543 3.543,3.543c0.155,0 0.307,-0.01 0.457,-0.029l0,4.216c-0.15,-0.019 -0.302,-0.029 -0.457,-0.029c-1.956,0 -3.543,1.587 -3.543,3.543c0,1.955 1.587,3.542 3.543,3.542c0.155,0 0.307,-0.01 0.457,-0.029l0,4.217c-0.15,-0.02 -0.302,-0.03 -0.457,-0.03c-1.956,0 -3.543,1.588 -3.543,3.543c0,1.955 1.587,3.543 3.543,3.543c0.155,0 0.307,-0.01 0.457,-0.029l0,4.216c-0.15,-0.019 -0.302,-0.029 -0.457,-0.029c-1.956,0 -3.543,1.587 -3.543,3.543c0,1.955 1.587,3.542 3.543,3.542c0.155,0 0.307,-0.009 0.457,-0.029l0,4.217c-0.15,-0.02 -0.302,-0.03 -0.457,-0.03c-1.956,0 -3.543,1.588 -3.543,3.543c0,1.956 1.587,3.543 3.543,3.543c0.155,0 0.307,-0.01 0.457,-0.029l0,4.216c-0.15,-0.019 -0.302,-0.029 -0.457,-0.029c-1.956,0 -3.543,1.587 -3.543,3.543c0,1.955 1.587,3.543 3.543,3.543c0.155,0 0.307,-0.01 0.457,-0.03l0,4.217c-0.15,-0.02 -0.302,-0.03 -0.457,-0.03c-1.956,0 -3.543,1.588 -3.543,3.543c0,1.956 1.587,3.543 3.543,3.543c0.155,0 0.307,-0.01 0.457,-0.029l0,4.216c-0.15,-0.019 -0.302,-0.029 -0.457,-0.029c-1.956,0 -3.543,1.587 -3.543,3.543c0,1.955 1.587,3.543 3.543,3.543c0.155,0 0.307,-0.01 0.457,-0.03l0,4.217c-0.15,-0.02 -0.302,-0.029 -0.457,-0.029c-1.956,0 -3.543,1.587 -3.543,3.542c0,1.956 1.587,3.543 3.543,3.543c0.155,0 0.307,-0.01 0.457,-0.029l0,4.216c-0.15,-0.019 -0.302,-0.029 -0.457,-0.029c-1.956,0 -3.543,1.588 -3.543,3.543c0,1.955 1.587,3.543 3.543,3.543c0.155,0 0.307,-0.01 0.457,-0.03l0,4.217c-0.15,-0.019 -0.302,-0.029 -0.457,-0.029c-1.956,0 -3.543,1.587 -3.543,3.542c0,1.956 1.587,3.543 3.543,3.543c0.155,0 0.307,-0.01 0.457,-0.029l0,4.216c-0.15,-0.019 -0.302,-0.029 -0.457,-0.029c-1.956,0 -3.543,1.588 -3.543,3.543c0,1.955 1.587,3.543 3.543,3.543c0.155,0 0.307,-0.01 0.457,-0.03l0,4.217c-0.15,-0.019 -0.302,-0.029 -0.457,-0.029c-1.956,0 -3.543,1.587 -3.543,3.542c0,1.956 1.587,3.543 3.543,3.543c0.155,0 0.307,-0.01 0.457,-0.029l0,4.216c-0.15,-0.019 -0.302,-0.029 -0.457,-0.029c-1.956,0 -3.543,1.588 -3.543,3.543c0,1.955 1.587,3.543 3.543,3.543c0.155,0 0.307,-0.01 0.457,-0.03l0,4.217c-0.15,-0.019 -0.302,-0.029 -0.457,-0.029c-0.679,0 -1.314,0.191 -1.854,0.523c-8.371,0.543 -15.346,6.246 -17.772,13.958l-493.917,0l0,-281l494.401,0Z" style="fill:#f6f6f6;stroke:#828282;stroke-width:1px;"/></svg>