<?xml version="1.0" encoding="UTF-8" standalone="no"?><!DOCTYPE svg PUBLIC "-//W3C//DTD SVG 1.1//EN" "http://www.w3.org/Graphics/SVG/1.1/DTD/svg11.dtd"><svg width="100%" height="100%" viewBox="0 0 142 142" version="1.1" xmlns="http://www.w3.org/2000/svg" xmlns:xlink="http://www.w3.org/1999/xlink" xml:space="preserve" xmlns:serif="http://www.serif.com/" style="fill-rule:evenodd;clip-rule:evenodd;stroke-linejoin:round;stroke-miterlimit:1.41421;"><path d="M70.508,6.565c-38.259,0 -69.257,24.479 -69.257,54.698c0,19.434 12.848,36.471 32.136,46.186l-6.532,24.373c-0.242,0.757 -0.054,1.557 0.498,2.098c0.38,0.363 0.878,0.562 1.404,0.562c0.434,0 0.832,-0.182 1.22,-0.473l28.064,-18.943c4.072,0.58 8.222,0.907 12.467,0.907c38.242,0 69.272,-24.466 69.272,-54.71c0,-30.219 -31.03,-54.698 -69.272,-54.698" style="fill:#391f1f;fill-rule:nonzero;"/><path d="M27.553,52.595l-7.546,0c-1.042,0 -1.938,-0.252 -2.678,-0.704c-0.75,-0.462 -1.194,-1.148 -1.376,-2.037c-0.042,-0.224 -0.078,-0.498 -0.106,-0.769c0,-1.084 0.398,-1.973 1.187,-2.56c0.786,-0.604 1.76,-0.932 2.955,-0.932l23.061,0c1.042,0 1.917,0.246 2.66,0.708c0.75,0.477 1.213,1.159 1.394,2.034c0.046,0.246 0.075,0.498 0.064,0.75c0,1.138 -0.391,1.974 -1.159,2.596c-0.768,0.598 -1.746,0.914 -2.948,0.914l-7.528,0l-0.029,25.973c0,1.252 -0.352,2.255 -1.095,3.005c-0.704,0.761 -1.7,1.142 -2.912,1.142c-1.014,0 -1.864,-0.292 -2.55,-0.832c-0.708,-0.544 -1.149,-1.295 -1.341,-2.248c-0.071,-0.334 -0.078,-0.704 -0.071,-1.067l0.018,-25.973Z" style="fill:#fff100;fill-rule:nonzero;"/><path d="M53.907,53.962l-0.089,0l-4.697,14.64l9.334,0l-4.548,-14.64Zm-4.822,-6.476c0.335,-0.914 0.815,-1.568 1.458,-1.956c0.64,-0.38 1.448,-0.59 2.45,-0.59l1.91,0c1.042,0 1.906,0.22 2.614,0.636c0.704,0.416 1.248,1.22 1.65,2.426l9.626,27.889c0.302,0.861 0.512,1.622 0.64,2.223c0.082,0.402 0.124,0.729 0.146,0.96c-0.022,1.017 -0.381,1.874 -1.124,2.582c-0.733,0.732 -1.618,1.059 -2.66,1.059c-1.838,0 -3.03,-0.768 -3.574,-2.272l-2.062,-6.07l-12.837,0l-2.063,6.07c-0.516,1.504 -1.703,2.272 -3.592,2.272c-0.924,0 -1.71,-0.234 -2.354,-0.732c-0.622,-0.48 -1.038,-1.177 -1.219,-2.055c-0.043,-0.257 -0.071,-0.545 -0.071,-0.854c-0.022,-0.395 0.06,-0.892 0.216,-1.472c0.161,-0.569 0.342,-1.149 0.552,-1.711l10.294,-28.405Z" style="fill:#fff100;fill-rule:nonzero;"/><path d="M70.824,49.086c0,-1.231 0.356,-2.244 1.096,-2.994c0.704,-0.772 1.682,-1.152 2.912,-1.152c1.017,0 1.856,0.284 2.553,0.835c0.697,0.562 1.131,1.33 1.319,2.272c0.082,0.331 0.1,0.687 0.082,1.039l-0.007,25.984l13.325,0c1.077,0 1.973,0.224 2.688,0.725c0.74,0.469 1.184,1.156 1.365,2.016c0.047,0.228 0.1,0.498 0.107,0.758c0,1.113 -0.377,1.966 -1.184,2.581c-0.768,0.605 -1.764,0.911 -2.959,0.911l-16.628,0c-1.237,0 -2.233,-0.242 -3.004,-0.758c-0.776,-0.497 -1.256,-1.33 -1.501,-2.478c-0.1,-0.473 -0.164,-1.014 -0.189,-1.622l0.025,-28.117Z" style="fill:#fff100;fill-rule:nonzero;"/><path d="M97.071,49.086c0,-1.231 0.37,-2.244 1.088,-2.994c0.722,-0.772 1.7,-1.152 2.92,-1.152c1.002,0 1.856,0.284 2.542,0.835c0.704,0.562 1.156,1.33 1.348,2.272c0.064,0.331 0.103,0.687 0.082,1.039l0.021,12.076l12.517,-14.402c0.562,-0.604 1.06,-1.049 1.519,-1.376c0.472,-0.288 1.013,-0.444 1.674,-0.444c0.879,0 1.665,0.256 2.39,0.753c0.715,0.48 1.149,1.124 1.309,1.935c0.021,0.039 0.028,0.146 0.067,0.316c0,0.121 0,0.249 0.025,0.345c-0.007,0.573 -0.146,1.067 -0.38,1.501c-0.242,0.455 -0.541,0.878 -0.95,1.33l-8.186,8.957l9.697,15.345l0.292,0.473c0.651,1.056 1.038,1.806 1.145,2.322c0,0.028 0.021,0.128 0.057,0.234l0,0.274c0,1.426 -0.405,2.436 -1.202,3.058c-0.786,0.605 -1.764,0.932 -2.887,0.932c-0.815,0 -1.494,-0.146 -1.999,-0.437c-0.516,-0.331 -1.052,-0.879 -1.557,-1.743l-9.203,-14.786l-4.367,4.57l0.039,8.25c-0.021,1.251 -0.373,2.254 -1.099,3.005c-0.722,0.761 -1.7,1.141 -2.93,1.141c-0.996,0 -1.846,-0.292 -2.553,-0.832c-0.694,-0.544 -1.145,-1.298 -1.337,-2.247c-0.064,-0.335 -0.082,-0.705 -0.064,-1.067l-0.018,-29.483Z" style="fill:#fff100;fill-rule:nonzero;"/></svg>