<?xml version="1.0" encoding="UTF-8" standalone="no"?><!DOCTYPE svg PUBLIC "-//W3C//DTD SVG 1.1//EN" "http://www.w3.org/Graphics/SVG/1.1/DTD/svg11.dtd"><svg width="100%" height="100%" viewBox="0 0 284 284" version="1.1" xmlns="http://www.w3.org/2000/svg" xmlns:xlink="http://www.w3.org/1999/xlink" xml:space="preserve" xmlns:serif="http://www.serif.com/" style="fill-rule:evenodd;clip-rule:evenodd;stroke-linejoin:round;stroke-miterlimit:1.41421;"><path d="M230.483,55.471l0,122.847c0,10.682 -8.673,19.362 -19.344,19.362l-117.722,0c-2.51,0 -24.625,0.34 -34.077,11.78l-5.448,5.6l-9.679,9.945l-10.806,11.104c-0.819,0.482 -2.116,1.06 -2.963,1.06l-0.117,0.017c-0.007,-0.007 -1.095,-1.049 -1.095,-5.851l0,-179.263c0,-10.682 8.68,-19.362 19.362,-19.362l162.545,0c8.463,0 15.591,5.49 18.213,13.075c0.688,1.985 1.131,4.076 1.131,6.287l0,3.399Zm26.23,-0.564l0.035,-0.06l-24.397,-22.487c-5.295,-5.706 -12.827,-9.329 -21.212,-9.329l-162.545,0c-16.006,0 -29.041,13.022 -29.041,29.041l0,179.263c0,4.983 0.918,8.694 2.779,11.334c0.652,0.929 1.421,1.712 2.293,2.339l23.331,21.499c0.372,0.393 0.755,0.751 1.162,1.07l0.199,0.192l0.028,-0.032c0.387,0.273 0.759,0.578 1.17,0.797c1.378,0.702 2.924,1.078 4.589,1.078c4.331,0 8.113,-2.517 8.829,-3.02l27.272,-27.903c5.781,-6.993 21.339,-8.548 26.865,-8.563l117.726,0c16.008,0 29.033,-13.028 29.033,-29.037l0,-126.263c0,-7.762 -3.112,-14.737 -8.116,-19.919" style="fill:#3fb049;fill-rule:nonzero;"/><path d="M83.448,83.712c-8.003,0 -14.464,6.482 -14.464,14.47l0,30.384c0,7.992 6.461,14.464 14.464,14.464c7.981,0 14.467,-6.472 14.467,-14.464l0,-30.384c0,-7.988 -6.486,-14.47 -14.467,-14.47" style="fill:#3fb049;fill-rule:nonzero;"/><path d="M173.56,83.712c-7.992,0 -14.477,6.482 -14.477,14.47l0,30.384c0,7.992 6.485,14.464 14.477,14.464c7.985,0 14.457,-6.472 14.457,-14.464l0,-30.384c0,-7.988 -6.472,-14.47 -14.457,-14.47" style="fill:#3fb049;fill-rule:nonzero;"/></svg>